<?xml version="1.0" standalone="no"?>
<!DOCTYPE svg PUBLIC "-//W3C//DTD SVG 20010904//EN"
 "http://www.w3.org/TR/2001/REC-SVG-20010904/DTD/svg10.dtd">
<svg version="1.0" xmlns="http://www.w3.org/2000/svg"
 width="24.000000pt" height="24.000000pt" viewBox="0 0 24.000000 24.000000"
 preserveAspectRatio="xMidYMid meet">

<g transform="translate(0.000000,24.000000) scale(0.100000,-0.100000)"
fill="#000000" stroke="none">
<path d="M103 177 c-34 -36 -81 -132 -70 -144 2 -1 26 4 53 13 50 17 138 90
127 107 -3 5 -20 -5 -37 -22 -57 -55 -100 -12 -45 45 17 17 27 34 22 37 -6 4
-28 -13 -50 -36z m10 -99 c-2 -5 -13 -8 -24 -8 -18 0 -27 29 -13 43 7 7 42
-26 37 -35z"/>
</g>
</svg>
